<svg width="1374" height="331" viewBox="0 0 1374 331" fill="none" xmlns="http://www.w3.org/2000/svg">
<path d="M185.44 0H99.97C44.7581 0 0 44.7581 0 99.97V185.44C0 240.652 44.7581 285.41 99.97 285.41H185.44C240.652 285.41 285.41 240.652 285.41 185.44V99.97C285.41 44.7581 240.652 0 185.44 0Z" fill="#0E3044"/>
<path d="M308.88 325.14L308.18 326.45C306.67 329.25 303.8 330.83 300.84 330.83C299.37 330.83 297.88 330.44 296.53 329.62L102.88 218.25C86.9296 209.86 73.4996 196.38 65.2996 178.8C45.3696 136.06 63.8596 85.2501 106.6 65.3201C149.34 45.3901 200.15 63.8801 220.08 106.62C235.1 138.82 228.3 175.59 205.76 200.3L138.18 149.25C138.18 149.25 132.34 143.81 142.69 142.71C153.05 141.61 178.68 140.32 178.68 140.32C178.68 140.32 179.91 125.54 165.74 114.12C155.23 105.52 141.61 104.43 130.12 107.75C116.9 112.02 109.53 124 106.76 135.8C104.65 151.78 114 165.38 124.17 173.14C125.02 173.88 126.53 175.12 128.55 176.75L306.64 314.61C309.86 317.1 310.8 321.55 308.87 325.14H308.88Z" fill="#00D827"/>
<path d="M459.6 158.56C459.6 169 458.16 178.48 455.28 187C452.52 195.52 448.38 202.72 442.86 208.6C437.34 214.48 430.44 218.8 422.16 221.56L452.94 253.6H429.72L404.88 224.62C404.16 224.62 403.38 224.62 402.54 224.62C401.82 224.74 401.1 224.8 400.38 224.8C390.3 224.8 381.54 223.24 374.1 220.12C366.66 216.88 360.48 212.38 355.56 206.62C350.64 200.74 346.98 193.72 344.58 185.56C342.18 177.4 340.98 168.34 340.98 158.38C340.98 145.18 343.14 133.66 347.46 123.82C351.78 113.98 358.32 106.3 367.08 100.78C375.96 95.26 387.12 92.5 400.56 92.5C413.4 92.5 424.2 95.26 432.96 100.78C441.72 106.18 448.32 113.86 452.76 123.82C457.32 133.66 459.6 145.24 459.6 158.56ZM358.08 158.56C358.08 169.36 359.58 178.66 362.58 186.46C365.58 194.26 370.2 200.26 376.44 204.46C382.8 208.66 390.78 210.76 400.38 210.76C410.1 210.76 418.02 208.66 424.14 204.46C430.38 200.26 435 194.26 438 186.46C441 178.66 442.5 169.36 442.5 158.56C442.5 142.36 439.14 129.7 432.42 120.58C425.7 111.34 415.08 106.72 400.56 106.72C390.84 106.72 382.8 108.82 376.44 113.02C370.2 117.1 365.58 123.04 362.58 130.84C359.58 138.52 358.08 147.76 358.08 158.56ZM562.965 126.52V223H550.005L547.665 210.22H546.945C544.905 213.58 542.265 216.34 539.025 218.5C535.785 220.66 532.245 222.22 528.405 223.18C524.565 224.26 520.545 224.8 516.345 224.8C508.665 224.8 502.185 223.6 496.905 221.2C491.745 218.68 487.845 214.84 485.205 209.68C482.565 204.52 481.245 197.86 481.245 189.7V126.52H497.265V188.62C497.265 196.3 499.005 202.06 502.485 205.9C505.965 209.74 511.365 211.66 518.685 211.66C525.885 211.66 531.525 210.34 535.605 207.7C539.805 204.94 542.745 200.98 544.425 195.82C546.225 190.54 547.125 184.18 547.125 176.74V126.52H562.965ZM605.835 126.52V223H589.995V126.52H605.835ZM598.095 90.34C600.495 90.34 602.595 91.18 604.395 92.86C606.315 94.42 607.275 96.94 607.275 100.42C607.275 103.78 606.315 106.3 604.395 107.98C602.595 109.66 600.495 110.5 598.095 110.5C595.455 110.5 593.235 109.66 591.435 107.98C589.635 106.3 588.735 103.78 588.735 100.42C588.735 96.94 589.635 94.42 591.435 92.86C593.235 91.18 595.455 90.34 598.095 90.34ZM671.501 224.8C662.981 224.8 655.361 223.06 648.641 219.58C642.041 216.1 636.821 210.7 632.981 203.38C629.261 196.06 627.401 186.7 627.401 175.3C627.401 163.42 629.381 153.76 633.341 146.32C637.301 138.88 642.641 133.42 649.361 129.94C656.201 126.46 663.941 124.72 672.581 124.72C677.501 124.72 682.241 125.26 686.801 126.34C691.361 127.3 695.081 128.5 697.961 129.94L693.101 143.08C690.221 142 686.861 140.98 683.021 140.02C679.181 139.06 675.581 138.58 672.221 138.58C665.741 138.58 660.401 139.96 656.201 142.72C652.001 145.48 648.881 149.56 646.841 154.96C644.801 160.36 643.781 167.08 643.781 175.12C643.781 182.8 644.801 189.34 646.841 194.74C648.881 200.14 651.941 204.22 656.021 206.98C660.101 209.74 665.201 211.12 671.321 211.12C676.601 211.12 681.221 210.58 685.181 209.5C689.261 208.42 692.981 207.1 696.341 205.54V219.58C693.101 221.26 689.501 222.52 685.541 223.36C681.701 224.32 677.021 224.8 671.501 224.8ZM731.345 157.66C731.345 159.58 731.225 162.1 730.985 165.22C730.865 168.34 730.745 171.04 730.625 173.32H731.345C732.065 172.36 733.145 170.98 734.585 169.18C736.025 167.38 737.465 165.58 738.905 163.78C740.465 161.86 741.785 160.3 742.865 159.1L773.645 126.52H792.185L753.125 167.74L794.885 223H775.805L742.325 178L731.345 187.54V223H715.685V86.2H731.345V157.66Z" fill="#0E3044"/>
<path d="M925.375 223H853.555V94.48H925.375V108.7H869.755V148.84H922.135V162.88H869.755V208.78H925.375V223ZM969.055 223L932.515 126.52H949.435L969.955 183.4C970.915 186.04 971.935 188.98 973.015 192.22C974.095 195.46 975.055 198.58 975.895 201.58C976.735 204.46 977.335 206.92 977.695 208.96H978.415C978.895 206.92 979.555 204.4 980.395 201.4C981.355 198.4 982.375 195.28 983.455 192.04C984.655 188.8 985.675 185.92 986.515 183.4L1007.03 126.52H1023.95L987.235 223H969.055ZM1072.88 124.72C1081.16 124.72 1088.24 126.52 1094.12 130.12C1100.12 133.72 1104.68 138.82 1107.8 145.42C1111.04 151.9 1112.66 159.52 1112.66 168.28V177.82H1046.6C1046.84 188.74 1049.6 197.08 1054.88 202.84C1060.28 208.48 1067.78 211.3 1077.38 211.3C1083.5 211.3 1088.9 210.76 1093.58 209.68C1098.38 208.48 1103.3 206.8 1108.34 204.64V218.5C1103.42 220.66 1098.56 222.22 1093.76 223.18C1088.96 224.26 1083.26 224.8 1076.66 224.8C1067.54 224.8 1059.44 222.94 1052.36 219.22C1045.4 215.5 1039.94 209.98 1035.98 202.66C1032.14 195.22 1030.22 186.16 1030.22 175.48C1030.22 164.92 1031.96 155.86 1035.44 148.3C1039.04 140.74 1044.02 134.92 1050.38 130.84C1056.86 126.76 1064.36 124.72 1072.88 124.72ZM1072.7 137.68C1065.14 137.68 1059.14 140.14 1054.7 145.06C1050.38 149.86 1047.8 156.58 1046.96 165.22H1096.1C1096.1 159.7 1095.26 154.9 1093.58 150.82C1091.9 146.74 1089.32 143.56 1085.84 141.28C1082.48 138.88 1078.1 137.68 1072.7 137.68ZM1180.06 124.72C1191.58 124.72 1200.28 127.54 1206.16 133.18C1212.04 138.7 1214.98 147.7 1214.98 160.18V223H1199.32V161.26C1199.32 153.46 1197.58 147.64 1194.1 143.8C1190.62 139.96 1185.16 138.04 1177.72 138.04C1167.04 138.04 1159.66 141.04 1155.58 147.04C1151.5 153.04 1149.46 161.68 1149.46 172.96V223H1133.62V126.52H1146.4L1148.74 139.66H1149.64C1151.8 136.3 1154.44 133.54 1157.56 131.38C1160.8 129.1 1164.34 127.42 1168.18 126.34C1172.02 125.26 1175.98 124.72 1180.06 124.72ZM1273.51 211.84C1275.91 211.84 1278.37 211.66 1280.89 211.3C1283.41 210.82 1285.45 210.34 1287.01 209.86V221.92C1285.33 222.76 1282.93 223.42 1279.81 223.9C1276.69 224.5 1273.69 224.8 1270.81 224.8C1265.77 224.8 1261.09 223.96 1256.77 222.28C1252.57 220.48 1249.15 217.42 1246.51 213.1C1243.87 208.78 1242.55 202.72 1242.55 194.92V138.76H1228.87V131.2L1242.73 124.9L1249.03 104.38H1258.39V126.52H1286.29V138.76H1258.39V194.56C1258.39 200.44 1259.77 204.82 1262.53 207.7C1265.41 210.46 1269.07 211.84 1273.51 211.84ZM1365.55 196.36C1365.55 202.6 1363.99 207.82 1360.87 212.02C1357.75 216.22 1353.31 219.4 1347.55 221.56C1341.79 223.72 1334.95 224.8 1327.03 224.8C1320.31 224.8 1314.49 224.26 1309.57 223.18C1304.77 222.1 1300.51 220.6 1296.79 218.68V204.28C1300.63 206.2 1305.25 208 1310.65 209.68C1316.17 211.24 1321.75 212.02 1327.39 212.02C1335.43 212.02 1341.25 210.76 1344.85 208.24C1348.45 205.6 1350.25 202.12 1350.25 197.8C1350.25 195.4 1349.59 193.24 1348.27 191.32C1346.95 189.4 1344.55 187.48 1341.07 185.56C1337.71 183.64 1332.85 181.48 1326.49 179.08C1320.25 176.68 1314.91 174.28 1310.47 171.88C1306.03 169.48 1302.61 166.6 1300.21 163.24C1297.81 159.88 1296.61 155.56 1296.61 150.28C1296.61 142.12 1299.91 135.82 1306.51 131.38C1313.23 126.94 1321.99 124.72 1332.79 124.72C1338.67 124.72 1344.13 125.32 1349.17 126.52C1354.33 127.6 1359.13 129.16 1363.57 131.2L1358.17 143.8C1355.53 142.6 1352.71 141.58 1349.71 140.74C1346.83 139.78 1343.89 139.06 1340.89 138.58C1337.89 137.98 1334.83 137.68 1331.71 137.68C1325.23 137.68 1320.25 138.76 1316.77 140.92C1313.41 142.96 1311.73 145.78 1311.73 149.38C1311.73 152.02 1312.51 154.3 1314.07 156.22C1315.63 158.02 1318.21 159.82 1321.81 161.62C1325.53 163.3 1330.45 165.34 1336.57 167.74C1342.69 170.02 1347.91 172.36 1352.23 174.76C1356.55 177.16 1359.85 180.1 1362.13 183.58C1364.41 186.94 1365.55 191.2 1365.55 196.36Z" fill="#00D827"/>
</svg>
